<svg width="63" height="63" viewBox="0 0 63 63" fill="none" xmlns="http://www.w3.org/2000/svg">
<rect width="63" height="63" rx="10" fill="black"/>
<path d="M30.6492 48.7596C30.2166 48.792 29.8172 48.6946 29.4511 48.4674C29.1183 48.2726 28.8854 48.0129 28.7522 47.6883C28.6191 47.5259 28.4028 47.1689 28.1032 46.617C27.8037 46.0976 27.6207 45.6431 27.5542 45.2535C27.4543 44.2146 27.3878 43.2083 27.3545 42.2344C27.3545 41.2605 27.4044 39.897 27.5043 38.1439C27.6041 36.7155 27.8037 35.4494 28.1032 34.3457C28.4028 33.2094 28.7023 32.2518 29.0018 31.4726C29.3013 30.6611 29.5344 30.0605 29.7007 29.6709C29.8671 29.2489 29.9004 29.0379 29.8005 29.0379C29.6674 29.0379 29.5177 29.1677 29.3512 29.4274C29.2182 29.6546 29.0517 29.9631 28.852 30.3526C28.6857 30.7422 28.4861 31.1642 28.253 31.6187C28.0533 32.0733 27.8371 32.5115 27.6041 32.9335C27.1382 33.9398 26.5891 35.0111 25.9567 36.1474C25.3577 37.2511 24.742 38.3224 24.1097 39.3613C23.4774 40.4002 22.9283 41.3092 22.4623 42.0883C22.1628 42.4129 21.8134 42.8837 21.414 43.5005C21.0147 44.0848 20.582 44.7016 20.1161 45.3509C19.6502 46.0002 19.1676 46.5359 18.6684 46.9579C17.9363 47.6396 17.1875 48.0454 16.422 48.1752C15.6566 48.3376 14.9411 48.2563 14.2755 47.9318C13.9427 47.8993 13.5932 47.7207 13.2271 47.3961C12.8611 47.1039 12.5615 46.7307 12.3286 46.2761C12.1289 45.8216 12.079 45.3996 12.1788 45.01C12.1455 44.5555 12.1455 43.8576 12.1788 42.9161C12.2454 41.9422 12.3452 40.8872 12.4783 39.7509C12.6115 38.5822 12.7446 37.4622 12.8777 36.3909C13.0441 35.3196 13.1939 34.4268 13.327 33.7126C13.6265 31.635 14.0259 29.5085 14.5251 27.3335C15.0576 25.1584 15.5401 22.9671 15.9727 20.7596C16.239 20.1103 16.4719 19.3799 16.6716 18.5683C16.9046 17.7242 17.1375 16.9451 17.3705 16.2309C17.4038 15.5167 17.67 15.0784 18.1692 14.9161C18.6684 14.7213 19.2009 14.6889 19.7667 14.8187C20.3657 14.9486 20.7817 15.1758 21.0147 15.5005C21.3475 15.8251 21.6636 16.3283 21.9631 17.01C22.2627 17.6918 22.1795 18.552 21.7135 19.5909C21.048 21.1816 20.399 23.1294 19.7667 25.4344C19.1676 27.7068 18.6185 30.4663 18.1193 33.7126C17.9862 34.4918 17.8364 35.3683 17.67 36.3422C17.5369 37.2837 17.4038 38.1926 17.2707 39.0692C17.1708 39.9457 17.0876 40.6761 17.0211 41.2605C16.9878 41.8124 17.0044 42.1046 17.071 42.137C17.3372 42.202 17.6201 42.0559 17.9196 41.6987C18.2524 41.3416 18.6019 40.7735 18.9679 39.9944C20.3324 37.7868 21.6137 35.5955 22.8118 33.4205C24.0432 31.2454 25.2745 28.9729 26.5059 26.6031C27.0716 25.6616 27.6374 24.639 28.2031 23.5352C28.8021 22.399 29.3679 21.3602 29.9004 20.4187C30.4662 19.4448 31.0153 18.5034 31.5477 17.5944C32.0803 16.6854 32.5461 15.9225 32.9455 15.3057C33.3448 14.6564 33.6444 14.2993 33.844 14.2344C34.7426 14.2344 35.4082 14.4616 35.8408 14.9161C36.3068 15.3706 36.6729 15.9225 36.9391 16.5718C37.0057 16.7341 37.0389 17.01 37.0389 17.3996C37.0723 17.7892 37.0224 18.13 36.8892 18.4222C36.8559 18.6494 36.7062 19.1202 36.4399 19.8344C36.207 20.5486 35.9906 21.3439 35.7909 22.2205C35.4582 23.097 35.1586 23.9735 34.8924 24.85C34.6594 25.6941 34.493 26.392 34.3932 26.9439C34.127 28.3399 33.7941 29.8657 33.3948 31.5213C32.9954 33.177 32.646 34.8326 32.3464 36.4883C32.0803 38.1115 31.9305 39.5561 31.8972 40.8222C31.8639 41.7311 31.8639 42.3318 31.8972 42.6239C31.9638 42.8837 32.0636 43.1596 32.1967 43.4518C32.2633 43.7115 32.413 43.7763 32.646 43.6465C32.879 43.5167 33.1119 43.2894 33.3448 42.9648C33.8108 42.2831 34.1602 41.6987 34.3932 41.2118C34.6594 40.7248 34.9257 40.2054 35.1919 39.6535C35.4582 39.0692 35.8243 38.3387 36.2901 37.4622C37.1222 35.9689 37.9709 34.3294 38.836 32.5439C39.7346 30.7585 40.5832 28.9892 41.382 27.2361C42.2141 25.4831 42.9295 23.9248 43.5285 22.5613C44.1609 20.8083 44.6934 19.3961 45.126 18.3248C45.5587 17.221 45.9581 16.377 46.324 15.7926C46.6902 15.2083 47.0396 14.8187 47.3724 14.6239C47.5388 14.4941 47.8882 14.4292 48.4207 14.4292C48.9865 14.4292 49.4191 14.559 49.7186 14.8187C49.8518 14.9486 50.0847 15.1596 50.4175 15.4518C50.7504 15.7439 50.9001 16.0848 50.8668 16.4744C50.7005 16.9938 50.3842 17.8379 49.9183 19.0065C49.4857 20.1752 48.9698 21.4738 48.3708 22.9022C47.8051 24.2981 47.2393 25.6454 46.6735 26.9439C46.141 28.21 45.6918 29.2164 45.3256 29.9631C44.9597 30.6448 44.6102 31.2292 44.2773 31.7161C43.9446 32.2031 43.7781 32.5764 43.7781 32.8361C43.7781 32.9659 43.6118 33.3718 43.2789 34.0535C42.9462 34.7028 42.5136 35.4981 41.981 36.4396C41.4818 37.3811 40.9327 38.355 40.3336 39.3613C39.7346 40.3677 39.1689 41.2929 38.6364 42.137C38.1039 42.9811 37.6546 43.6303 37.2885 44.0848C36.4566 45.0911 35.558 45.9352 34.5928 46.617C33.661 47.3311 32.8291 47.8668 32.0968 48.2239C31.3647 48.5811 30.8822 48.7596 30.6492 48.7596Z" fill="white"/>
</svg>
